<?xml version="1.0" standalone="no"?>
<!DOCTYPE svg PUBLIC "-//W3C//DTD SVG 20010904//EN"
 "http://www.w3.org/TR/2001/REC-SVG-20010904/DTD/svg10.dtd">
<svg version="1.0" xmlns="http://www.w3.org/2000/svg"
 width="512.000000pt" height="512.000000pt" viewBox="0 0 512.000000 512.000000"
 preserveAspectRatio="xMidYMid meet">
<metadata>
Created by potrace 1.11, written by Peter Selinger 2001-2013
</metadata>
<g transform="translate(0.000000,512.000000) scale(0.100000,-0.100000)"
fill="#000000" stroke="none">
<path d="M2300 5059 c-487 -46 -950 -234 -1325 -536 -417 -336 -717 -801 -845
-1312 -126 -503 -103 -1038 66 -1522 49 -142 168 -382 251 -509 345 -525 868
-901 1462 -1050 503 -126 1038 -103 1522 66 142 49 382 168 509 251 525 345
901 868 1050 1462 55 220 80 421 80 651 0 594 -189 1140 -547 1585 -425 528
-1032 851 -1718 915 -126 11 -379 11 -505 -1z m405 -99 c321 -30 598 -107 880
-245 648 -316 1130 -909 1305 -1604 64 -257 88 -485 71 -679 -29 -332 -105
-608 -246 -897 -316 -648 -909 -1130 -1604 -1305 -257 -64 -485 -88 -679 -71
-332 29 -608 105 -897 246 -648 316 -1130 909 -1305 1604 -64 257 -88 485 -71
679 29 332 105 608 246 897 316 648 909 1130 1604 1305 269 68 485 89 696 70z"/>
<path d="M3606 3734 c-395 -66 -669 -299 -790 -669 -27 -84 -29 -92 -51 -220
-13 -76 -14 -417 -2 -486 76 -419 266 -680 588 -807 84 -33 143 -48 269 -69
58 -10 331 -9 390 1 157 26 310 74 464 146 l83 40 0 170 c0 93 -4 170 -8 170
-4 0 -49 -31 -100 -70 -196 -147 -386 -213 -619 -214 -169 -1 -237 11 -352 63
-176 79 -300 227 -372 443 -42 125 -51 194 -50 383 1 176 7 230 41 345 89 299
283 483 560 529 58 10 271 7 328 -4 82 -16 186 -49 254 -82 73 -35 235 -138
275 -175 41 -38 44 -27 42 155 l-1 172 -85 42 c-102 50 -238 97 -363 124 -117
26 -384 33 -501 13z"/>
<path d="M1299 3716 c-2 -2 -26 -6 -54 -9 -177 -18 -373 -112 -490 -233 -104
-107 -145 -207 -151 -364 -10 -276 120 -467 388 -570 69 -27 247 -70 358 -87
19 -3 42 -6 50 -8 8 -1 38 -5 65 -10 28 -4 79 -14 115 -22 36 -8 75 -17 88
-19 43 -8 128 -44 174 -73 87 -55 121 -127 121 -251 1 -124 -46 -207 -157
-281 -101 -67 -211 -93 -401 -94 -131 0 -180 6 -299 36 -108 28 -307 105 -326
128 -3 3 -16 12 -30 19 -14 7 -53 33 -85 58 -33 24 -64 43 -69 41 -5 -2 -10
-80 -10 -181 l-1 -178 26 -14 c15 -7 46 -20 70 -29 24 -9 69 -25 99 -36 76
-28 234 -67 300 -75 30 -3 59 -9 64 -12 21 -12 384 -10 464 3 202 33 392 129
506 256 57 64 122 193 140 279 29 140 2 319 -64 423 -91 143 -286 245 -560
292 -19 3 -51 10 -70 15 -19 4 -53 11 -75 14 -22 3 -50 7 -61 10 -12 2 -38 7
-58 10 -256 41 -388 107 -436 217 -28 67 -34 176 -12 243 36 109 169 206 327
239 116 24 307 17 467 -17 110 -24 310 -114 395 -177 29 -21 57 -39 63 -39 6
0 10 60 10 174 l0 173 -82 31 c-213 80 -428 119 -669 120 -70 1 -128 -1 -130
-2z"/>
</g>
</svg>
